<?xml version="1.0" encoding="UTF-8" standalone="no"?>
<!DOCTYPE svg PUBLIC "-//W3C//DTD SVG 1.1//EN" "http://www.w3.org/Graphics/SVG/1.1/DTD/svg11.dtd">
<svg width="100%" height="100%" viewBox="0 0 486 486" version="1.1" xmlns="http://www.w3.org/2000/svg" xmlns:xlink="http://www.w3.org/1999/xlink" xml:space="preserve" xmlns:serif="http://www.serif.com/" style="fill-rule:evenodd;clip-rule:evenodd;stroke-linecap:round;stroke-linejoin:round;stroke-miterlimit:1.5;">
    <g id="Artboard1" transform="matrix(0.806871,0,0,0.877749,-157.46,-90.7235)">
        <rect x="195.148" y="103.359" width="602.087" height="553.469" style="fill:none;"/>
        <clipPath id="_clip1">
            <rect x="195.148" y="103.359" width="602.087" height="553.469"/>
        </clipPath>
        <g clip-path="url(#_clip1)">
            <g transform="matrix(1.23935,0,0,1.13928,-97.1805,-50.888)">
                <g transform="matrix(1,0,0,1,-11.0746,28.9813)">
                    <path d="M385.899,202.91L385.899,507.127" style="fill:none;stroke:black;stroke-width:40px;"/>
                </g>
                <path d="M374.825,536.108L653.246,384L374.825,231.892" style="fill:none;stroke:black;stroke-width:40px;"/>
            </g>
            <g transform="matrix(1.85396,0,0,1.70426,-730.091,-120.537)">
                <circle cx="659.946" cy="295.767" r="147.946" style="fill:rgb(235,235,235);fill-opacity:0;stroke:black;stroke-width:13.37px;"/>
            </g>
            <g id="Layer1" transform="matrix(1.23935,0,0,1.13928,-116.34,-53.9573)">
                <g transform="matrix(1,0,0,1,-20,-13)">
                    <path d="M797.235,314.903L549.494,314.903" style="fill:none;stroke:white;stroke-width:40px;stroke-linecap:butt;"/>
                </g>
                <g transform="matrix(1,0,0,1,-20,-13)">
                    <path d="M797.235,314.903L549.494,314.903" style="fill:none;stroke:white;stroke-width:40px;stroke-linecap:butt;"/>
                </g>
                <g transform="matrix(1,0,0,1,60.1354,220.997)">
                    <path d="M797.235,314.903L549.494,314.903" style="fill:none;stroke:white;stroke-width:24px;stroke-linecap:butt;"/>
                </g>
                <g transform="matrix(1,0,0,1,66.3759,-134.487)">
                    <path d="M797.235,314.903L549.494,314.903" style="fill:none;stroke:white;stroke-width:40px;stroke-linecap:butt;"/>
                </g>
                <g transform="matrix(1,0,0,1,66.3759,-81.7135)">
                    <path d="M797.235,314.903L549.494,314.903" style="fill:none;stroke:white;stroke-width:3.5px;stroke-linecap:butt;"/>
                </g>
                <g transform="matrix(1,0,0,1,-57.4944,33.3307)">
                    <path d="M797.235,314.903L549.494,314.903" style="fill:none;stroke:white;stroke-width:1px;stroke-linecap:butt;"/>
                </g>
                <g transform="matrix(1,0,0,1,-57.4944,23.6328)">
                    <path d="M797.235,314.903L549.494,314.903" style="fill:none;stroke:white;stroke-width:4.5px;stroke-linecap:butt;"/>
                </g>
                <g transform="matrix(1,0,0,1,-57.4944,146.078)">
                    <path d="M797.235,314.903L549.494,314.903" style="fill:none;stroke:white;stroke-width:9px;stroke-linecap:butt;"/>
                </g>
                <g transform="matrix(1,0,0,1,81.5395,164.399)">
                    <path d="M797.235,314.903L549.494,314.903" style="fill:none;stroke:white;stroke-width:9px;stroke-linecap:butt;"/>
                </g>
                <g transform="matrix(1,0,0,1,135.245,179.018)">
                    <path d="M797.235,314.903L549.494,314.903" style="fill:none;stroke:white;stroke-width:9px;stroke-linecap:butt;"/>
                </g>
                <g transform="matrix(1,0,0,1,39.9487,259.792)">
                    <path d="M797.235,314.903L549.494,314.903" style="fill:none;stroke:white;stroke-width:5.5px;stroke-linecap:butt;"/>
                </g>
                <g transform="matrix(1,0,0,1,-12.596,133.68)">
                    <path d="M797.235,314.903L549.494,314.903" style="fill:none;stroke:white;stroke-width:1.5px;stroke-linecap:butt;"/>
                </g>
                <g transform="matrix(1,0,0,1,-12.596,112.464)">
                    <path d="M797.235,314.903L549.494,314.903" style="fill:none;stroke:white;stroke-width:3.5px;stroke-linecap:butt;"/>
                </g>
                <g transform="matrix(1,0,0,1,144.245,100.198)">
                    <path d="M797.235,314.903L549.494,314.903" style="fill:none;stroke:white;stroke-width:12px;stroke-linecap:butt;"/>
                </g>
                <g transform="matrix(0.289504,0,0,1,482.51,78.4295)">
                    <path d="M797.235,314.903L549.494,314.903" style="fill:none;stroke:white;stroke-width:27.17px;stroke-linecap:butt;"/>
                </g>
                <g transform="matrix(0.420991,0,0,1,481.981,46.3321)">
                    <path d="M797.235,314.903L549.494,314.903" style="fill:none;stroke:white;stroke-width:52.14px;stroke-linecap:butt;"/>
                </g>
            </g>
        </g>
    </g>
</svg>
